<svg id="Layer_1" data-name="Layer 1" xmlns="http://www.w3.org/2000/svg" viewBox="0 0 442.31 442.31"><rect x="423.08" y="192.31" width="19.23" height="19.23"/><rect x="423.08" y="173.08" width="19.23" height="19.23"/><rect x="403.85" y="192.31" width="19.23" height="19.23"/><rect x="403.85" y="173.08" width="19.23" height="19.23"/><rect x="403.85" y="153.85" width="19.23" height="19.23"/><rect x="403.85" y="115.39" width="19.23" height="19.23"/><rect x="403.85" y="96.16" width="19.23" height="19.23"/><rect x="403.85" y="76.92" width="19.23" height="19.24"/><rect x="384.62" y="288.46" width="19.23" height="19.23"/><rect x="384.62" y="269.23" width="19.23" height="19.23"/><rect x="384.62" y="134.62" width="19.23" height="19.23"/><rect x="384.62" y="115.39" width="19.23" height="19.23"/><rect x="384.62" y="76.92" width="19.23" height="19.24"/><rect x="384.62" y="57.69" width="19.23" height="19.23"/><rect x="365.39" y="288.46" width="19.23" height="19.23"/><rect x="365.39" y="269.23" width="19.23" height="19.23"/><rect x="365.39" y="250" width="19.23" height="19.23"/><rect x="365.39" y="192.31" width="19.23" height="19.23"/><rect x="365.39" y="173.08" width="19.23" height="19.23"/><rect x="365.39" y="153.85" width="19.23" height="19.23"/><rect x="365.39" y="115.39" width="19.23" height="19.23"/><rect x="365.39" y="96.16" width="19.23" height="19.23"/><rect x="365.39" y="57.69" width="19.23" height="19.23"/><rect x="346.16" y="230.77" width="19.23" height="19.23"/><rect x="346.16" y="211.54" width="19.23" height="19.23"/><rect x="346.16" y="153.85" width="19.23" height="19.23"/><rect x="346.16" y="96.16" width="19.23" height="19.23"/><rect x="346.16" y="38.46" width="19.23" height="19.23"/><rect x="326.92" y="403.85" width="19.24" height="19.23"/><rect x="326.92" y="384.62" width="19.24" height="19.23"/><rect x="326.92" y="269.23" width="19.24" height="19.23"/><rect x="326.92" y="250" width="19.24" height="19.23"/><rect x="326.92" y="211.54" width="19.24" height="19.23"/><rect x="326.92" y="192.31" width="19.24" height="19.23"/><rect x="326.92" y="153.85" width="19.24" height="19.23"/><rect x="326.92" y="96.16" width="19.24" height="19.23"/><rect x="326.92" y="38.46" width="19.24" height="19.23"/><rect x="307.69" y="403.85" width="19.23" height="19.23"/><rect x="307.69" y="384.62" width="19.23" height="19.23"/><rect x="307.69" y="365.39" width="19.23" height="19.23"/><rect x="307.69" y="307.69" width="19.23" height="19.23"/><rect x="307.69" y="288.46" width="19.23" height="19.23"/><rect x="307.69" y="230.77" width="19.23" height="19.23"/><rect x="307.69" y="211.54" width="19.23" height="19.23"/><rect x="307.69" y="192.31" width="19.23" height="19.23"/><rect x="307.69" y="173.08" width="19.23" height="19.23"/><rect x="307.69" y="134.62" width="19.23" height="19.23"/><rect x="307.69" y="96.16" width="19.23" height="19.23"/><rect x="307.69" y="76.92" width="19.23" height="19.24"/><rect x="307.69" y="38.46" width="19.23" height="19.23"/><rect x="288.46" y="346.16" width="19.23" height="19.23"/><rect x="288.46" y="326.92" width="19.23" height="19.24"/><rect x="288.46" y="250" width="19.23" height="19.23"/><rect x="288.46" y="230.77" width="19.23" height="19.23"/><rect x="288.46" y="211.54" width="19.23" height="19.23"/><rect x="288.46" y="192.31" width="19.23" height="19.23"/><rect x="288.46" y="173.08" width="19.23" height="19.23"/><rect x="288.46" y="134.62" width="19.23" height="19.23"/><rect x="288.46" y="76.92" width="19.23" height="19.24"/><rect x="288.46" y="19.23" width="19.23" height="19.23"/><rect x="269.23" y="384.62" width="19.23" height="19.23"/><rect x="269.23" y="365.39" width="19.23" height="19.23"/><rect x="269.23" y="346.16" width="19.23" height="19.23"/><rect x="269.23" y="269.23" width="19.23" height="19.23"/><rect x="269.23" y="173.08" width="19.23" height="19.23"/><rect x="269.23" y="134.62" width="19.23" height="19.23"/><rect x="269.23" y="76.92" width="19.23" height="19.24"/><rect x="269.23" y="19.23" width="19.23" height="19.23"/><rect x="250" y="403.85" width="19.23" height="19.23"/><rect x="250" y="384.62" width="19.23" height="19.23"/><rect x="250" y="365.39" width="19.23" height="19.23"/><rect x="250" y="326.92" width="19.23" height="19.24"/><rect x="250" y="307.69" width="19.23" height="19.23"/><rect x="250" y="288.46" width="19.23" height="19.23"/><rect x="250" y="230.77" width="19.23" height="19.23"/><rect x="250" y="211.54" width="19.23" height="19.23"/><rect x="250" y="153.85" width="19.23" height="19.23"/><rect x="250" y="134.62" width="19.23" height="19.23"/><rect x="250" y="76.92" width="19.23" height="19.24"/><rect x="250" y="19.23" width="19.23" height="19.23"/><rect x="230.77" y="423.08" width="19.23" height="19.23"/><rect x="230.77" y="403.85" width="19.23" height="19.23"/><rect x="230.77" y="384.62" width="19.23" height="19.23"/><rect x="230.77" y="326.92" width="19.23" height="19.24"/><rect x="230.77" y="307.69" width="19.23" height="19.23"/><rect x="230.77" y="269.23" width="19.23" height="19.23"/><rect x="230.77" y="230.77" width="19.23" height="19.23"/><rect x="230.77" y="211.54" width="19.23" height="19.23"/><rect x="230.77" y="153.85" width="19.23" height="19.23"/><rect x="230.77" y="115.39" width="19.23" height="19.23"/><rect x="230.77" y="57.69" width="19.23" height="19.23"/><rect x="230.77" width="19.23" height="19.23"/><rect x="211.54" y="423.08" width="19.23" height="19.23"/><rect x="211.54" y="326.92" width="19.23" height="19.24"/><rect x="211.54" y="288.46" width="19.23" height="19.23"/><rect x="211.54" y="153.85" width="19.23" height="19.23"/><rect x="211.54" y="115.39" width="19.23" height="19.23"/><rect x="211.54" y="57.69" width="19.23" height="19.23"/><rect x="211.54" width="19.23" height="19.23"/><rect x="192.31" y="423.08" width="19.23" height="19.23"/><rect x="192.31" y="326.92" width="19.23" height="19.24"/><rect x="192.31" y="307.69" width="19.23" height="19.23"/><rect x="192.31" y="269.23" width="19.23" height="19.23"/><rect x="192.31" y="153.85" width="19.23" height="19.23"/><rect x="192.31" y="115.39" width="19.23" height="19.23"/><rect x="192.31" y="57.69" width="19.23" height="19.23"/><rect x="192.31" width="19.23" height="19.23"/><rect x="173.08" y="423.08" width="19.23" height="19.23"/><rect x="173.08" y="326.92" width="19.23" height="19.24"/><rect x="173.08" y="288.46" width="19.23" height="19.23"/><rect x="173.08" y="230.77" width="19.23" height="19.23"/><rect x="173.08" y="211.54" width="19.23" height="19.23"/><rect x="173.08" y="153.85" width="19.23" height="19.23"/><rect x="173.08" y="115.39" width="19.23" height="19.23"/><rect x="173.08" y="57.69" width="19.23" height="19.23"/><rect x="173.08" width="19.23" height="19.23"/><rect x="153.85" y="403.85" width="19.23" height="19.23"/><rect x="153.85" y="326.92" width="19.23" height="19.24"/><rect x="153.85" y="307.69" width="19.23" height="19.23"/><rect x="153.85" y="288.46" width="19.23" height="19.23"/><rect x="153.85" y="269.23" width="19.23" height="19.23"/><rect x="153.85" y="230.77" width="19.23" height="19.23"/><rect x="153.85" y="211.54" width="19.23" height="19.23"/><rect x="153.85" y="153.85" width="19.23" height="19.23"/><rect x="153.85" y="134.62" width="19.23" height="19.23"/><rect x="153.85" y="76.92" width="19.23" height="19.24"/><rect x="153.85" y="19.23" width="19.23" height="19.23"/><rect x="134.62" y="384.62" width="19.23" height="19.23"/><rect x="134.62" y="365.39" width="19.23" height="19.23"/><rect x="134.62" y="269.23" width="19.23" height="19.23"/><rect x="134.62" y="173.08" width="19.23" height="19.23"/><rect x="134.62" y="134.62" width="19.23" height="19.23"/><rect x="134.62" y="76.92" width="19.23" height="19.24"/><rect x="134.62" y="19.23" width="19.23" height="19.23"/><rect x="115.39" y="346.16" width="19.23" height="19.23"/><rect x="115.39" y="326.92" width="19.23" height="19.24"/><rect x="115.39" y="250" width="19.23" height="19.23"/><rect x="115.39" y="230.77" width="19.23" height="19.23"/><rect x="115.39" y="211.54" width="19.23" height="19.23"/><rect x="115.39" y="192.31" width="19.23" height="19.23"/><rect x="115.39" y="134.62" width="19.23" height="19.23"/><rect x="115.39" y="76.92" width="19.23" height="19.24"/><rect x="115.39" y="19.23" width="19.23" height="19.23"/><rect x="96.16" y="307.69" width="19.23" height="19.23"/><rect x="96.16" y="288.46" width="19.23" height="19.23"/><rect x="96.16" y="250" width="19.23" height="19.23"/><rect x="96.16" y="230.77" width="19.23" height="19.23"/><rect x="96.16" y="134.62" width="19.23" height="19.23"/><rect x="96.16" y="96.16" width="19.23" height="19.23"/><rect x="96.16" y="76.92" width="19.23" height="19.24"/><rect x="96.16" y="38.46" width="19.23" height="19.23"/><rect x="76.92" y="269.23" width="19.24" height="19.23"/><rect x="76.92" y="250" width="19.24" height="19.23"/><rect x="76.92" y="230.77" width="19.24" height="19.23"/><rect x="76.92" y="211.54" width="19.24" height="19.23"/><rect x="76.92" y="153.85" width="19.24" height="19.23"/><rect x="76.92" y="96.16" width="19.24" height="19.23"/><rect x="76.92" y="38.46" width="19.24" height="19.23"/><rect x="57.69" y="230.77" width="19.23" height="19.23"/><rect x="57.69" y="211.54" width="19.23" height="19.23"/><rect x="57.69" y="192.31" width="19.23" height="19.23"/><rect x="57.69" y="153.85" width="19.23" height="19.23"/><rect x="57.69" y="96.16" width="19.23" height="19.23"/><rect x="57.69" y="38.46" width="19.23" height="19.23"/><rect x="38.46" y="192.31" width="19.23" height="19.23"/><rect x="38.46" y="173.08" width="19.23" height="19.23"/><rect x="38.46" y="153.85" width="19.23" height="19.23"/><rect x="38.46" y="115.39" width="19.23" height="19.23"/><rect x="38.46" y="96.16" width="19.23" height="19.23"/><rect x="38.46" y="57.69" width="19.23" height="19.23"/><rect x="19.23" y="134.62" width="19.23" height="19.23"/><rect x="19.23" y="115.39" width="19.23" height="19.23"/><rect x="19.23" y="76.92" width="19.23" height="19.24"/><rect x="19.23" y="57.69" width="19.23" height="19.23"/><rect y="115.39" width="19.23" height="19.23"/><rect y="96.16" width="19.23" height="19.23"/><rect y="76.92" width="19.23" height="19.24"/></svg>