<?xml version="1.0" encoding="utf-8"?>
<!-- Generator: Adobe Illustrator 25.0.0, SVG Export Plug-In . SVG Version: 6.00 Build 0)  -->
<svg version="1.1" id="Layer_1" xmlns="http://www.w3.org/2000/svg" xmlns:xlink="http://www.w3.org/1999/xlink" x="0px" y="0px"
	 viewBox="0 0 442.3 442.3" style="enable-background:new 0 0 442.3 442.3;" xml:space="preserve">
<style type="text/css">
	.st0{fill:none;}
</style>
<g>
	<polygon class="st0" points="307.7,288.5 326.9,288.5 326.9,269.2 326.9,250 307.7,250 307.7,269.2 288.5,269.2 288.5,288.5 
		269.2,288.5 269.2,307.7 269.2,326.9 269.2,346.2 288.5,346.2 288.5,326.9 307.7,326.9 307.7,307.7 	"/>
	<polygon class="st0" points="192.3,153.8 211.5,153.8 230.8,153.8 250,153.8 250,134.6 230.8,134.6 211.5,134.6 192.3,134.6 
		173.1,134.6 173.1,153.8 	"/>
	<rect x="230.8" y="288.5" class="st0" width="19.2" height="19.2"/>
	<polygon class="st0" points="307.7,173.1 326.9,173.1 326.9,153.8 307.7,153.8 288.5,153.8 269.2,153.8 269.2,173.1 288.5,173.1 	
		"/>
	<rect x="384.6" y="96.2" class="st0" width="19.2" height="19.2"/>
	<rect x="173.1" y="307.7" class="st0" width="19.2" height="19.2"/>
	<rect x="192.3" y="288.5" class="st0" width="19.2" height="19.2"/>
	<rect x="211.5" y="307.7" class="st0" width="19.2" height="19.2"/>
	<polygon class="st0" points="365.4,173.1 346.2,173.1 326.9,173.1 326.9,192.3 346.2,192.3 346.2,211.5 365.4,211.5 365.4,192.3 	
		"/>
	<rect x="19.2" y="96.2" class="st0" width="19.2" height="19.2"/>
	<rect x="423.1" y="192.3" width="19.2" height="19.2"/>
	<rect x="423.1" y="173.1" width="19.2" height="19.2"/>
	<rect x="403.9" y="192.3" width="19.2" height="19.2"/>
	<rect x="403.9" y="173.1" width="19.2" height="19.2"/>
	<rect x="403.9" y="153.8" width="19.2" height="19.2"/>
	<rect x="403.9" y="115.4" width="19.2" height="19.2"/>
	<rect x="403.9" y="96.2" width="19.2" height="19.2"/>
	<rect x="403.9" y="76.9" width="19.2" height="19.2"/>
	<rect x="384.6" y="288.5" width="19.2" height="19.2"/>
	<rect x="384.6" y="269.2" width="19.2" height="19.2"/>
	<rect x="384.6" y="288.5" width="19.2" height="0"/>
	<polygon points="384.6,134.6 384.6,134.6 384.6,153.8 384.6,153.8 403.9,153.8 403.9,134.6 	"/>
	<rect x="384.6" y="115.4" width="19.2" height="19.2"/>
	<polygon points="403.9,96.2 403.9,76.9 384.6,76.9 384.6,76.9 384.6,96.2 384.6,96.2 	"/>
	<rect x="384.6" y="57.7" width="19.2" height="19.2"/>
	<rect x="365.4" y="288.5" width="19.2" height="19.2"/>
	<rect x="384.6" y="288.5" width="0" height="19.2"/>
	<rect x="365.4" y="269.2" width="19.2" height="19.2"/>
	<rect x="384.6" y="269.2" width="0" height="19.2"/>
	<rect x="365.4" y="288.5" width="19.2" height="0"/>
	<rect x="384.6" y="288.5" width="0" height="0"/>
	<polygon points="384.6,269.2 384.6,250 365.4,250 365.4,269.2 384.6,269.2 	"/>
	<rect x="365.4" y="192.3" width="19.2" height="19.2"/>
	<rect x="365.4" y="173.1" width="19.2" height="19.2"/>
	<polygon points="365.4,153.8 365.4,173.1 384.6,173.1 384.6,153.8 384.6,153.8 	"/>
	<rect x="365.4" y="115.4" width="19.2" height="19.2"/>
	<rect x="384.6" y="115.4" width="0" height="19.2"/>
	<polygon points="384.6,115.4 384.6,96.2 384.6,96.2 365.4,96.2 365.4,115.4 384.6,115.4 	"/>
	<rect x="365.4" y="57.7" width="19.2" height="19.2"/>
	<rect x="384.6" y="57.7" width="0" height="19.2"/>
	<rect x="346.2" y="230.8" width="19.2" height="19.2"/>
	<rect x="346.2" y="211.5" width="19.2" height="19.2"/>
	<rect x="346.2" y="153.8" width="19.2" height="19.2"/>
	<rect x="346.2" y="96.2" width="19.2" height="19.2"/>
	<rect x="346.2" y="38.5" width="19.2" height="19.2"/>
	<rect x="326.9" y="403.8" width="19.2" height="19.2"/>
	<rect x="326.9" y="384.6" width="19.2" height="19.2"/>
	<polygon points="326.9,288.5 326.9,288.5 346.2,288.5 346.2,269.2 326.9,269.2 	"/>
	<rect x="326.9" y="250" width="19.2" height="19.2"/>
	<rect x="326.9" y="211.5" width="19.2" height="19.2"/>
	<rect x="326.9" y="192.3" width="19.2" height="19.2"/>
	<rect x="326.9" y="153.8" width="19.2" height="19.2"/>
	<rect x="326.9" y="96.2" width="19.2" height="19.2"/>
	<rect x="326.9" y="38.5" width="19.2" height="19.2"/>
	<rect x="307.7" y="403.8" width="19.2" height="19.2"/>
	<rect x="307.7" y="384.6" width="19.2" height="19.2"/>
	<rect x="307.7" y="365.4" width="19.2" height="19.2"/>
	<rect x="307.7" y="307.7" width="19.2" height="19.2"/>
	<polygon points="307.7,288.5 307.7,307.7 326.9,307.7 326.9,288.5 326.9,288.5 	"/>
	<rect x="307.7" y="230.8" width="19.2" height="19.2"/>
	<rect x="307.7" y="211.5" width="19.2" height="19.2"/>
	<rect x="307.7" y="192.3" width="19.2" height="19.2"/>
	<rect x="307.7" y="173.1" width="19.2" height="19.2"/>
	<rect x="307.7" y="134.6" width="19.2" height="19.2"/>
	<rect x="307.7" y="96.2" width="19.2" height="19.2"/>
	<rect x="307.7" y="76.9" width="19.2" height="19.2"/>
	<rect x="307.7" y="38.5" width="19.2" height="19.2"/>
	<rect x="288.5" y="346.2" width="19.2" height="19.2"/>
	<rect x="288.5" y="326.9" width="19.2" height="19.2"/>
	<rect x="288.5" y="250" width="19.2" height="19.2"/>
	<rect x="288.5" y="230.8" width="19.2" height="19.2"/>
	<rect x="288.5" y="211.5" width="19.2" height="19.2"/>
	<rect x="288.5" y="192.3" width="19.2" height="19.2"/>
	<rect x="288.5" y="173.1" width="19.2" height="19.2"/>
	<rect x="288.5" y="134.6" width="19.2" height="19.2"/>
	<rect x="288.5" y="76.9" width="19.2" height="19.2"/>
	<rect x="288.5" y="19.2" width="19.2" height="19.2"/>
	<rect x="269.2" y="384.6" width="19.2" height="19.2"/>
	<rect x="269.2" y="365.4" width="19.2" height="19.2"/>
	<rect x="269.2" y="346.2" width="19.2" height="19.2"/>
	<polygon points="288.5,288.5 288.5,269.2 269.2,269.2 269.2,288.5 269.2,288.5 	"/>
	<rect x="269.2" y="173.1" width="19.2" height="19.2"/>
	<rect x="269.2" y="134.6" width="19.2" height="19.2"/>
	<rect x="269.2" y="76.9" width="19.2" height="19.2"/>
	<rect x="269.2" y="19.2" width="19.2" height="19.2"/>
	<polygon points="250,423.1 250,423.1 269.2,423.1 269.2,403.8 250,403.8 	"/>
	<rect x="250" y="384.6" width="19.2" height="19.2"/>
	<rect x="250" y="365.4" width="19.2" height="19.2"/>
	<rect x="250" y="326.9" width="19.2" height="19.2"/>
	<rect x="250" y="307.7" width="19.2" height="19.2"/>
	<polygon points="250,307.7 269.2,307.7 269.2,288.5 269.2,288.5 250,288.5 250,288.5 	"/>
	<rect x="250" y="230.8" width="19.2" height="19.2"/>
	<rect x="250" y="211.5" width="19.2" height="19.2"/>
	<rect x="250" y="153.8" width="19.2" height="19.2"/>
	<rect x="250" y="134.6" width="19.2" height="19.2"/>
	<rect x="250" y="76.9" width="19.2" height="19.2"/>
	<rect x="250" y="19.2" width="19.2" height="19.2"/>
	<rect x="230.8" y="423.1" width="19.2" height="19.2"/>
	<rect x="230.8" y="403.8" width="19.2" height="19.2"/>
	<rect x="230.8" y="423.1" width="19.2" height="0"/>
	<rect x="230.8" y="384.6" width="19.2" height="19.2"/>
	<rect x="230.8" y="326.9" width="19.2" height="19.2"/>
	<rect x="230.8" y="307.7" width="19.2" height="19.2"/>
	<polygon points="250,288.5 250,288.5 250,269.2 230.8,269.2 230.8,288.5 230.8,288.5 	"/>
	<rect x="230.8" y="230.8" width="19.2" height="19.2"/>
	<rect x="230.8" y="211.5" width="19.2" height="19.2"/>
	<rect x="230.8" y="153.8" width="19.2" height="19.2"/>
	<rect x="230.8" y="115.4" width="19.2" height="19.2"/>
	<rect x="230.8" y="57.7" width="19.2" height="19.2"/>
	<rect x="230.8" width="19.2" height="19.2"/>
	<polygon points="230.8,423.1 211.5,423.1 211.5,442.3 230.8,442.3 230.8,423.1 	"/>
	<rect x="211.5" y="326.9" width="19.2" height="19.2"/>
	<polygon points="211.5,307.7 230.8,307.7 230.8,288.5 230.8,288.5 211.5,288.5 211.5,288.5 	"/>
	<rect x="211.5" y="153.8" width="19.2" height="19.2"/>
	<rect x="211.5" y="115.4" width="19.2" height="19.2"/>
	<rect x="211.5" y="57.7" width="19.2" height="19.2"/>
	<rect x="211.5" width="19.2" height="19.2"/>
	<rect x="192.3" y="423.1" width="19.2" height="19.2"/>
	<rect x="192.3" y="326.9" width="19.2" height="19.2"/>
	<rect x="192.3" y="307.7" width="19.2" height="19.2"/>
	<polygon points="211.5,288.5 211.5,288.5 211.5,269.2 192.3,269.2 192.3,288.5 192.3,288.5 	"/>
	<rect x="192.3" y="153.8" width="19.2" height="19.2"/>
	<rect x="192.3" y="115.4" width="19.2" height="19.2"/>
	<rect x="192.3" y="57.7" width="19.2" height="19.2"/>
	<rect x="192.3" width="19.2" height="19.2"/>
	<polygon points="173.1,423.1 173.1,423.1 173.1,442.3 192.3,442.3 192.3,423.1 	"/>
	<rect x="173.1" y="326.9" width="19.2" height="19.2"/>
	<polygon points="173.1,307.7 192.3,307.7 192.3,288.5 192.3,288.5 173.1,288.5 173.1,288.5 	"/>
	<rect x="173.1" y="230.8" width="19.2" height="19.2"/>
	<rect x="173.1" y="211.5" width="19.2" height="19.2"/>
	<rect x="173.1" y="153.8" width="19.2" height="19.2"/>
	<rect x="173.1" y="115.4" width="19.2" height="19.2"/>
	<rect x="173.1" y="57.7" width="19.2" height="19.2"/>
	<rect x="173.1" width="19.2" height="19.2"/>
	<polygon points="173.1,403.8 153.9,403.8 153.9,423.1 173.1,423.1 173.1,423.1 	"/>
	<rect x="153.9" y="326.9" width="19.2" height="19.2"/>
	<rect x="153.9" y="307.7" width="19.2" height="19.2"/>
	<rect x="153.9" y="288.5" width="19.2" height="19.2"/>
	<rect x="153.9" y="269.2" width="19.2" height="19.2"/>
	<rect x="153.9" y="288.5" width="19.2" height="0"/>
	<rect x="153.9" y="230.8" width="19.2" height="19.2"/>
	<rect x="153.9" y="211.5" width="19.2" height="19.2"/>
	<rect x="153.9" y="153.8" width="19.2" height="19.2"/>
	<rect x="153.9" y="134.6" width="19.2" height="19.2"/>
	<rect x="153.9" y="76.9" width="19.2" height="19.2"/>
	<rect x="153.9" y="19.2" width="19.2" height="19.2"/>
	<rect x="134.6" y="384.6" width="19.2" height="19.2"/>
	<rect x="134.6" y="365.4" width="19.2" height="19.2"/>
	<rect x="134.6" y="269.2" width="19.2" height="19.2"/>
	<rect x="134.6" y="173.1" width="19.2" height="19.2"/>
	<rect x="134.6" y="134.6" width="19.2" height="19.2"/>
	<rect x="134.6" y="76.9" width="19.2" height="19.2"/>
	<rect x="134.6" y="19.2" width="19.2" height="19.2"/>
	<rect x="115.4" y="346.2" width="19.2" height="19.2"/>
	<rect x="115.4" y="326.9" width="19.2" height="19.2"/>
	<rect x="115.4" y="250" width="19.2" height="19.2"/>
	<rect x="115.4" y="230.8" width="19.2" height="19.2"/>
	<rect x="115.4" y="211.5" width="19.2" height="19.2"/>
	<rect x="115.4" y="192.3" width="19.2" height="19.2"/>
	<rect x="115.4" y="134.6" width="19.2" height="19.2"/>
	<rect x="115.4" y="76.9" width="19.2" height="19.2"/>
	<rect x="115.4" y="19.2" width="19.2" height="19.2"/>
	<rect x="96.2" y="307.7" width="19.2" height="19.2"/>
	<rect x="96.2" y="288.5" width="19.2" height="19.2"/>
	<rect x="96.2" y="250" width="19.2" height="19.2"/>
	<rect x="96.2" y="230.8" width="19.2" height="19.2"/>
	<rect x="96.2" y="134.6" width="19.2" height="19.2"/>
	<rect x="96.2" y="96.2" width="19.2" height="19.2"/>
	<rect x="96.2" y="76.9" width="19.2" height="19.2"/>
	<rect x="96.2" y="38.5" width="19.2" height="19.2"/>
	<rect x="76.9" y="269.2" width="19.2" height="19.2"/>
	<rect x="76.9" y="250" width="19.2" height="19.2"/>
	<rect x="76.9" y="230.8" width="19.2" height="19.2"/>
	<rect x="76.9" y="211.5" width="19.2" height="19.2"/>
	<rect x="76.9" y="153.8" width="19.2" height="19.2"/>
	<rect x="76.9" y="96.2" width="19.2" height="19.2"/>
	<rect x="76.9" y="38.5" width="19.2" height="19.2"/>
	<rect x="57.7" y="230.8" width="19.2" height="19.2"/>
	<rect x="57.7" y="211.5" width="19.2" height="19.2"/>
	<rect x="57.7" y="192.3" width="19.2" height="19.2"/>
	<rect x="57.7" y="153.8" width="19.2" height="19.2"/>
	<rect x="57.7" y="96.2" width="19.2" height="19.2"/>
	<rect x="57.7" y="38.5" width="19.2" height="19.2"/>
	<rect x="38.5" y="192.3" width="19.2" height="19.2"/>
	<rect x="38.5" y="173.1" width="19.2" height="19.2"/>
	<rect x="38.5" y="153.8" width="19.2" height="19.2"/>
	<rect x="38.5" y="115.4" width="19.2" height="19.2"/>
	<rect x="38.5" y="96.2" width="19.2" height="19.2"/>
	<rect x="38.5" y="57.7" width="16.9" height="19.2"/>
	<rect x="19.2" y="134.6" width="19.2" height="19.2"/>
	<rect x="19.2" y="115.4" width="19.2" height="19.2"/>
	<polygon points="38.5,96.2 38.5,76.9 33,76.9 19.2,76.9 19.2,96.2 	"/>
	<rect x="19.2" y="57.7" width="13.7" height="19.2"/>
	<rect x="33" y="57.7" width="5.5" height="19.2"/>
	<rect y="115.4" width="19.2" height="19.2"/>
	<rect y="96.2" width="19.2" height="19.2"/>
	<rect y="76.9" width="19.2" height="19.2"/>
</g>
</svg>
